<?xml version="1.0" encoding="UTF-8"?>
<svg version="1.1" xmlns="http://www.w3.org/2000/svg" width="32" height="32">
<path d="M0 0 C10.56 0 21.12 0 32 0 C32 10.56 32 21.12 32 32 C21.44 32 10.88 32 0 32 C0 21.44 0 10.88 0 0 Z " fill="#ACA223" transform="translate(0,0)"/>
<path d="M0 0 C5.94 0 11.88 0 18 0 C20.31 4.95 22.62 9.9 25 15 C24 16 24 16 20.83984375 16.09765625 C19.55207031 16.08605469 18.26429687 16.07445313 16.9375 16.0625 C15.64714844 16.05347656 14.35679688 16.04445313 13.02734375 16.03515625 C12.02832031 16.02355469 11.02929688 16.01195313 10 16 C10.54140625 17.03060547 10.54140625 17.03060547 11.09375 18.08203125 C11.5578125 18.98308594 12.021875 19.88414063 12.5 20.8125 C12.9640625 21.70582031 13.428125 22.59914063 13.90625 23.51953125 C15 26 15 26 15 29 C10.05 29 5.1 29 0 29 C0 19.43 0 9.86 0 0 Z " fill="#F4ED32" transform="translate(0,0)"/>
<path d="M0 0 C5.28 0 10.56 0 16 0 C8.97190367 14.33180428 8.97190367 14.33180428 5.06640625 20.3125 C3.50917391 22.77669183 2.24938453 25.36971679 1 28 C0.67 28 0.34 28 0 28 C0 18.76 0 9.52 0 0 Z " fill="#000000" transform="translate(0,0)"/>
<path d="M0 0 C4.62 0 9.24 0 14 0 C14 8.91 14 17.82 14 27 C10.51721514 22.35628685 7.98711763 17.51026585 5.3125 12.375 C4.80138672 11.40820312 4.29027344 10.44140625 3.76367188 9.4453125 C3.28091797 8.52234375 2.79816406 7.599375 2.30078125 6.6484375 C1.85903564 5.80458496 1.41729004 4.96073242 0.9621582 4.09130859 C0 2 0 2 0 0 Z " fill="#000000" transform="translate(18,0)"/>
<path d="M0 0 C4.29 0 8.58 0 13 0 C11.30119563 5.09641312 9.69062201 8.51562998 7 13 C4.64283596 10.84545751 3.21033856 8.80280126 1.8125 5.9375 C1.29623047 4.89916016 1.29623047 4.89916016 0.76953125 3.83984375 C0 2 0 2 0 0 Z " fill="#000000" transform="translate(10,16)"/>
</svg>
